<?xml version="1.0" encoding="utf-8"?>
<!-- Generator: Adobe Illustrator 21.1.0, SVG Export Plug-In . SVG Version: 6.00 Build 0)  -->
<svg version="1.1" id="_x2014_ÎÓÈ_x5F_1" xmlns="http://www.w3.org/2000/svg" xmlns:xlink="http://www.w3.org/1999/xlink"
	 x="0px" y="0px" viewBox="0 0 183.697 222.798" style="enable-background:new 0 0 183.697 222.798;" xml:space="preserve">
<style type="text/css">
	.st0{stroke:#58595B;stroke-width:9;stroke-linecap:round;stroke-miterlimit:10;}
</style>
<g>
	<path d="M64.129,219.534c-1.402,0-2.794-0.598-3.764-1.757c-1.739-2.077-1.465-5.17,0.612-6.909
		c23.511-19.682,37.614-46.255,38.693-72.905c0.407-10.032-1.981-18.213-3.997-22.127c-0.825,3.138-1.769,9.639-1.315,22.516
		c0.759,21.497-12.856,44.707-41.622,70.956c-2.001,1.826-5.105,1.685-6.93-0.317c-1.826-2.001-1.684-5.104,0.317-6.93
		c26.511-24.191,39.082-44.917,38.431-63.364c-0.91-25.781,3.177-31.571,6.839-33.734c2.382-1.408,5.176-1.359,7.666,0.128
		c7.188,4.297,10.938,20.29,10.412,33.268c-1.191,29.408-16.571,58.578-42.197,80.031C66.357,219.159,65.24,219.534,64.129,219.534z
		"/>
	<path d="M37.172,197.399c-1.182,0-2.368-0.425-3.309-1.286c-1.999-1.828-2.138-4.93-0.31-6.93l3.845-4.194
		c18.415-20.061,27.658-30.13,30.015-49.44c0.328-2.689,2.776-4.606,5.463-4.275c2.689,0.328,4.603,2.774,4.274,5.463
		c-2.738,22.435-13.95,34.65-32.525,54.886l-3.833,4.18C39.825,196.862,38.501,197.399,37.172,197.399z"/>
	<path d="M119.733,146.941c-0.107,0-0.214-0.003-0.322-0.01c-2.704-0.175-4.753-2.509-4.577-5.212
		c0.104-1.637,0.15-3.243,0.135-4.774c-0.217-19.896-5.388-28.501-9.542-35.416c-4.118-6.859-9.513-10.356-14.121-9.182
		c-5.064,1.292-11.242,9.15-11.981,27.048c-0.112,2.707-2.419,4.813-5.103,4.699c-2.707-0.112-4.81-2.397-4.698-5.103
		c0.816-19.753,8.052-33.267,19.358-36.15c8.969-2.285,18.517,2.915,24.919,13.579c4.548,7.569,10.73,17.859,10.977,40.42
		c0.019,1.778-0.033,3.633-0.156,5.514C124.454,144.948,122.297,146.941,119.733,146.941z"/>
	<path class="st0" d="M119.727,142.036"/>
	<path d="M83.718,222.798c-1.297,0-2.592-0.512-3.556-1.526c-1.866-1.964-1.787-5.069,0.177-6.935
		c14.928-14.186,26.539-34.687,31.858-56.246c0.648-2.631,3.309-4.235,5.937-3.587c2.629,0.648,4.235,3.307,3.587,5.937
		c-5.755,23.33-18.375,45.566-34.625,61.008C86.147,222.35,84.931,222.798,83.718,222.798z"/>
	<path d="M26.081,180.047c-1.317,0-2.63-0.527-3.597-1.569c-1.843-1.986-1.726-5.089,0.26-6.932
		c26.062-24.179,28.831-43.141,32.037-65.096c0.788-5.394,1.602-10.972,2.778-16.852c2.265-11.327,8.375-20.167,17.203-24.891
		c8.411-4.501,18.711-4.829,28.258-0.895c2.504,1.031,3.698,3.898,2.667,6.403c-1.031,2.503-3.897,3.699-6.403,2.667
		c-6.926-2.853-13.991-2.684-19.894,0.474c-6.195,3.315-10.532,9.767-12.211,18.165c-1.126,5.628-1.921,11.077-2.691,16.346
		c-3.33,22.801-6.475,44.338-35.072,70.869C28.471,179.614,27.275,180.047,26.081,180.047z"/>
	<path d="M105.82,218.277c-1.275,0-2.551-0.495-3.513-1.481c-1.89-1.94-1.851-5.046,0.09-6.937
		c17.153-16.714,26.596-39.373,28.061-67.347c1.404-26.805-5.334-40.176-13.613-53.695c-2.422-3.957-3.056-4.851-5.592-7.225
		c-1.978-1.851-2.08-4.955-0.229-6.933c1.852-1.979,4.954-2.08,6.934-0.229c3.421,3.203,4.575,4.887,7.254,9.265
		c8.812,14.388,16.594,29.753,15.044,59.331c-1.6,30.518-12.033,55.368-31.012,73.859
		C108.29,217.814,107.055,218.277,105.82,218.277z"/>
	<path d="M15.771,156.004c-1.578,0-3.126-0.76-4.074-2.167c-1.512-2.248-0.915-5.296,1.333-6.808
		c15.664-10.537,20.615-27.377,25.056-46.685c0.607-2.64,3.235-4.288,5.879-3.68c2.64,0.607,4.288,3.24,3.681,5.879
		c-4.735,20.588-10.528,40.105-29.141,52.626C17.665,155.733,16.713,156.004,15.771,156.004z"/>
	<path d="M146.53,106.761c-2.211,0-4.219-1.506-4.763-3.75c-3.46-14.261-8.234-23.705-17.032-33.683
		c-12.267-13.914-29.131-21.1-44-18.743c-10.858,1.716-19.25,8.228-23.629,18.333c-1.956,4.511-3.656,9.633-5.349,16.123
		c-0.684,2.621-3.365,4.191-5.984,3.507c-2.621-0.684-4.192-3.363-3.507-5.984c1.823-6.989,3.679-12.564,5.84-17.547
		c5.678-13.102,17.013-21.895,31.098-24.122c18.433-2.914,38.206,5.29,52.891,21.946c9.823,11.14,15.387,22.108,19.207,37.858
		c0.639,2.632-0.979,5.284-3.61,5.922C147.302,106.716,146.913,106.761,146.53,106.761z"/>
	<path class="st0" d="M146.534,101.855"/>
	<path d="M142.987,191.156c-0.581,0-1.173-0.104-1.749-0.324c-2.53-0.966-3.799-3.802-2.832-6.333
		c9.891-25.9,10.311-39.005,7.512-58.586c-0.311-2.164-0.622-4.249-0.939-6.258c-0.421-2.676,1.405-5.188,4.082-5.609
		c2.674-0.423,5.186,1.404,5.609,4.08c0.323,2.051,0.641,4.18,0.959,6.395c2.987,20.892,2.542,35.719-8.058,63.478
		C146.823,189.954,144.962,191.156,142.987,191.156z"/>
	<path d="M13.628,125.435c-1.2,0-2.403-0.438-3.349-1.323c-1.979-1.851-2.083-4.955-0.232-6.933
		c8.414-8.997,9.943-18.282,11.881-30.038c1.472-8.937,3.141-19.065,8.079-30.997c5.62-13.581,16.316-24.324,30.119-30.25
		c2.488-1.067,5.373,0.083,6.443,2.572c1.068,2.489-0.083,5.374-2.572,6.443c-11.438,4.91-20.29,13.784-24.925,24.986
		c-4.506,10.889-6.078,20.427-7.465,28.841c-2.031,12.33-3.95,23.975-14.394,35.143C16.246,124.913,14.939,125.435,13.628,125.435z"
		/>
	<path d="M148.731,63.272c-1.552,0-3.079-0.735-4.032-2.106c-7.921-11.395-18.624-19.682-32.723-25.334
		c-13.576-5.442-23.77-7.018-34.079-5.268c-2.674,0.453-5.203-1.344-5.657-4.015c-0.453-2.671,1.345-5.204,4.015-5.657
		c12.06-2.047,24.202-0.247,39.371,5.834c15.933,6.388,28.077,15.821,37.127,28.84c1.546,2.224,0.996,5.281-1.229,6.827
		C150.673,62.987,149.697,63.272,148.731,63.272z"/>
	<path class="st0" d="M148.726,58.366"/>
	<path d="M167.107,163.026c-0.238,0-0.478-0.017-0.718-0.052c-2.681-0.394-4.535-2.885-4.142-5.565
		c5.142-35.082,1.129-48.287-4.944-68.276l-0.79-2.602c-1.29-4.279-2.779-8.339-4.426-12.073c-1.094-2.479,0.029-5.374,2.508-6.467
		c2.476-1.095,5.374,0.028,6.467,2.508c1.808,4.098,3.438,8.537,4.843,13.194l0.784,2.587c6.227,20.492,10.726,35.297,5.264,72.552
		C171.595,161.271,169.501,163.026,167.107,163.026z"/>
	<path d="M4.908,98.635c-0.433,0-0.873-0.058-1.31-0.179c-2.611-0.722-4.142-3.424-3.419-6.035
		c0.857-3.102,1.677-6.906,2.544-10.933c3.3-15.326,7.82-36.314,21.237-50.039c1.894-1.937,4.999-1.973,6.936-0.079
		c1.938,1.894,1.973,5,0.079,6.936C19.538,50.007,15.532,68.608,12.313,83.554c-0.898,4.169-1.747,8.108-2.68,11.483
		C9.032,97.209,7.059,98.635,4.908,98.635z"/>
	<path d="M39.23,28.067c-1.399,0-2.788-0.595-3.758-1.749c-1.743-2.074-1.475-5.167,0.599-6.911
		C51.91,6.094,73.069-1.111,92.67,0.14c11.672,0.741,24.377,4.122,35.771,9.52c2.448,1.16,3.492,4.085,2.332,6.533
		c-1.159,2.447-4.086,3.491-6.532,2.333c-10.298-4.879-21.731-7.931-32.193-8.596C74.9,8.834,56.337,15.188,42.384,26.917
		C41.464,27.69,40.344,28.067,39.23,28.067z"/>
	<path class="st0" d="M126.569,11.634"/>
	<path d="M178.786,85.924c-2.221,0-4.233-1.519-4.768-3.773c-6.164-25.983-17.736-43.724-36.419-55.834
		c-2.273-1.474-2.922-4.511-1.448-6.784c1.475-2.273,4.512-2.921,6.784-1.448c20.935,13.57,33.844,33.208,40.629,61.802
		c0.625,2.635-1.005,5.279-3.641,5.904C179.542,85.881,179.161,85.924,178.786,85.924z"/>
</g>
</svg>
