<?xml version="1.0" standalone="no"?>
<!DOCTYPE svg PUBLIC "-//W3C//DTD SVG 20010904//EN"
 "http://www.w3.org/TR/2001/REC-SVG-20010904/DTD/svg10.dtd">
<svg version="1.0" xmlns="http://www.w3.org/2000/svg"
 width="200.000000pt" height="200.000000pt" viewBox="0 0 200.000000 200.000000"
 preserveAspectRatio="xMidYMid meet">
<metadata>
Created by potrace 1.14, written by Peter Selinger 2001-2017
</metadata>
<g transform="translate(0.000000,200.000000) scale(0.100000,-0.100000)"
fill="#000000" stroke="none">
<path d="M1357 1704 c-3 -3 -3 -13 0 -22 5 -11 2 -14 -10 -9 -9 3 -17 2 -17
-3 0 -6 -4 -10 -10 -10 -5 0 -7 8 -3 18 5 14 3 15 -8 5 -7 -7 -20 -13 -28 -13
-14 0 -14 1 -1 10 9 6 10 10 3 10 -6 0 -15 -4 -18 -10 -9 -15 -27 -12 -20 3 4
6 -3 1 -15 -13 -12 -14 -19 -19 -15 -12 5 10 1 13 -16 10 -13 -2 -23 -9 -21
-16 1 -8 -2 -11 -8 -7 -6 3 -8 11 -5 16 4 5 1 9 -4 9 -6 0 -11 -6 -11 -14 0
-8 -5 -18 -12 -22 -7 -4 -8 -3 -4 4 4 7 3 12 -3 12 -5 0 -13 -5 -17 -11 -3 -6
-17 -9 -30 -6 -21 4 -22 2 -12 -17 10 -18 9 -19 -4 -8 -13 10 -17 9 -23 -5 -7
-17 -8 -17 -15 2 -8 19 -9 19 -9 -2 -1 -12 -6 -25 -13 -29 -6 -4 -8 -3 -4 4 3
6 2 14 -4 17 -6 4 -10 3 -9 -2 5 -26 -2 -45 -15 -40 -15 6 -30 -19 -21 -34 4
-5 -1 -6 -9 -3 -11 4 -16 0 -16 -12 0 -16 -2 -17 -10 -4 -8 13 -10 12 -11 -5
-1 -11 -1 -24 0 -29 1 -5 -6 -3 -15 5 -12 9 -15 9 -10 2 4 -7 2 -13 -3 -13 -6
0 -11 -5 -11 -11 0 -5 6 -7 13 -4 15 8 -34 -35 -66 -57 -13 -9 -27 -31 -31
-49 -5 -27 -8 -30 -21 -19 -13 11 -14 10 -9 -4 4 -9 3 -16 -2 -15 -21 4 -28
-2 -14 -11 13 -8 12 -10 -3 -10 -10 0 -15 -4 -12 -10 3 -5 2 -10 -4 -10 -5 0
-13 -9 -16 -20 -3 -11 -11 -20 -17 -20 -7 0 -6 5 1 14 8 10 9 16 1 21 -6 4
-10 3 -9 -2 6 -25 -32 -75 -53 -71 -12 3 -13 -4 -5 -31 1 -5 0 -9 -3 -8 -3 0
-16 -6 -30 -13 -22 -12 -24 -12 -12 3 11 13 10 16 -7 22 -26 8 -27 21 -3 34 9
6 13 11 8 11 -5 0 -19 -8 -30 -17 -12 -10 -18 -14 -15 -10 8 9 -36 57 -51 57
-6 0 -10 5 -10 11 0 8 -5 7 -15 -1 -13 -11 -14 -10 -10 3 4 8 1 18 -6 23 -7 4
-10 3 -5 -4 10 -17 -21 -8 -45 14 -12 10 -19 14 -16 8 4 -7 0 -15 -8 -18 -9
-3 -18 1 -21 9 -5 12 -10 10 -26 -8 -11 -12 -17 -16 -13 -9 3 6 1 12 -6 12 -6
0 -9 -8 -6 -20 3 -11 1 -20 -5 -20 -5 0 -6 -5 -3 -10 4 -6 12 -7 18 -3 8 4 7
1 -1 -9 -9 -11 -10 -18 -2 -23 5 -3 10 -3 10 1 0 3 7 1 15 -6 8 -7 12 -16 9
-21 -3 -5 0 -9 6 -9 6 0 8 -5 4 -11 -4 -7 2 -6 17 2 22 11 23 11 11 -4 -11
-13 -11 -21 2 -45 8 -16 12 -33 8 -36 -3 -4 2 -4 13 0 16 6 18 5 7 -7 -14 -16
-16 -33 -2 -24 5 3 10 1 10 -5 0 -6 5 -8 13 -4 9 6 9 4 -1 -8 -11 -14 -10 -18
4 -26 15 -8 15 -9 0 -15 -11 -5 -15 -3 -10 5 4 7 3 8 -4 4 -6 -4 -24 1 -39 11
-15 10 -24 12 -19 5 7 -12 61 -43 72 -41 3 0 9 -3 12 -7 4 -4 1 -4 -7 1 -10 6
-12 2 -6 -16 6 -21 5 -22 -6 -8 -15 17 -64 49 -75 49 -4 0 5 -9 19 -20 14 -11
29 -20 34 -20 13 0 14 -38 1 -46 -6 -4 -8 -3 -5 3 3 5 0 10 -8 10 -10 0 -11
-5 -4 -19 7 -14 7 -18 -3 -16 -7 2 -12 -3 -10 -11 2 -9 -3 -11 -13 -7 -13 5
-15 1 -10 -15 5 -15 4 -19 -4 -15 -6 4 -11 0 -11 -9 0 -11 -5 -15 -14 -12 -9
4 -13 0 -11 -11 4 -25 -5 -34 -20 -22 -11 9 -13 8 -10 -8 4 -23 -18 -47 -34
-37 -7 3 -8 0 -5 -9 4 -10 1 -16 -10 -16 -10 0 -13 -5 -9 -17 5 -12 3 -14 -7
-8 -10 6 -12 4 -7 -9 4 -9 3 -15 -1 -12 -4 2 -14 1 -22 -5 -13 -7 -13 -9 0 -9
8 -1 2 -8 -13 -16 -16 -9 -25 -20 -21 -26 5 -8 1 -9 -12 -5 -18 7 -18 6 1 -9
14 -11 16 -18 8 -21 -9 -3 -8 -11 3 -29 9 -13 21 -24 26 -24 5 0 2 7 -6 16
-19 19 -21 31 -3 15 8 -6 17 -8 20 -4 4 3 7 -1 7 -11 0 -9 5 -14 10 -11 6 4 7
11 4 17 -4 7 -2 8 5 4 6 -4 9 -12 6 -17 -9 -13 9 -11 24 4 11 10 12 9 7 -1 -6
-9 -1 -11 18 -8 28 5 33 -3 14 -22 -8 -8 -9 -12 -1 -12 6 0 14 6 16 13 4 9 6
9 6 0 1 -7 8 -13 16 -13 8 0 15 -5 15 -11 0 -5 -6 -7 -12 -3 -7 4 -10 4 -6 -1
4 -4 2 -17 -4 -29 -10 -18 -9 -19 4 -9 18 15 29 7 21 -15 -4 -14 -3 -15 5 -2
8 10 8 18 1 27 -7 8 -7 18 0 30 6 10 11 14 12 8 1 -5 2 -14 3 -20 0 -5 6 -10
11 -10 6 0 9 7 8 17 -3 22 31 17 35 -5 2 -10 -1 -17 -7 -17 -6 0 -11 -4 -11
-10 0 -19 17 -10 28 15 15 32 15 38 1 29 -7 -4 -7 1 1 16 10 18 9 21 -2 17 -7
-2 -12 -9 -11 -14 1 -5 -4 -10 -12 -10 -8 0 -12 3 -10 7 2 4 -2 7 -10 7 -8 0
-11 -5 -8 -10 3 -5 0 -8 -7 -5 -8 2 -16 10 -18 18 -3 8 0 10 8 5 10 -6 12 -3
7 11 -7 18 -6 18 6 2 8 -10 17 -15 21 -11 11 11 38 12 56 3 11 -6 22 -5 31 3
7 7 5 2 -5 -10 -11 -13 -14 -23 -8 -23 6 0 18 10 26 22 9 12 16 18 16 12 0 -5
9 -10 20 -10 14 0 19 5 15 16 -5 11 -3 12 5 3 9 -8 9 -16 1 -30 -6 -10 -11
-12 -11 -5 0 6 -5 12 -11 12 -5 0 -8 -4 -4 -9 3 -6 -4 -8 -15 -6 -12 2 -18 0
-15 -6 4 -5 1 -8 -7 -7 -7 2 -11 -3 -9 -12 2 -8 3 -23 3 -32 0 -10 3 -20 9
-23 5 -4 6 2 2 11 -5 13 -3 15 8 9 11 -6 12 -5 2 6 -18 18 -16 34 2 19 10 -9
15 -9 15 -1 0 6 -5 11 -12 11 -16 0 -1 13 18 16 10 2 14 -3 10 -12 -3 -9 -1
-12 4 -9 6 3 10 1 10 -4 0 -6 5 -11 12 -11 9 0 9 3 0 12 -14 14 -16 32 -3 24
13 -8 42 4 35 15 -3 5 -1 9 5 9 5 0 12 -6 15 -13 3 -9 9 -7 19 6 9 11 18 14
21 8 4 -5 2 -12 -4 -16 -5 -3 -10 -12 -10 -18 0 -7 5 -4 11 6 6 9 14 15 19 12
5 -3 7 7 5 23 -3 22 1 28 16 29 11 1 17 -2 14 -7 -3 -4 2 -11 10 -14 13 -4 13
-2 5 14 -14 26 -13 35 3 21 8 -6 18 -7 22 -3 5 4 5 -1 2 -10 -3 -10 -3 -19 1
-22 4 -3 8 4 9 14 1 11 -3 22 -8 25 -5 4 -6 11 -3 17 4 6 12 1 20 -13 13 -24
13 -24 11 -1 -1 12 -5 22 -10 22 -4 0 -6 4 -3 8 6 10 36 9 54 -1 8 -6 10 -3 6
8 -4 10 -13 13 -25 10 -24 -8 -25 10 -2 19 11 5 22 1 30 -10 12 -16 13 -17 13
-1 0 9 -4 17 -8 17 -5 0 -9 7 -9 15 0 22 15 18 22 -6 4 -11 9 -18 12 -16 2 3
0 14 -6 25 -8 15 -8 24 2 34 25 28 18 43 -19 39 -6 -1 -11 5 -11 13 0 13 4 13
28 1 22 -12 29 -12 38 -1 7 8 7 17 1 24 -7 9 -7 9 2 2 20 -17 31 -11 17 8 -13
16 -13 16 5 2 18 -14 19 -13 13 3 -3 9 -2 17 3 17 6 0 10 -8 10 -17 0 -14 2
-15 9 -4 6 9 11 10 15 2 4 -6 12 -8 18 -5 6 4 1 13 -13 21 -13 8 -16 12 -6 9
12 -4 21 2 28 17 8 19 9 18 4 -8 l-5 -30 27 30 c41 44 79 38 49 -7 -9 -14 -13
-28 -9 -31 3 -4 1 -7 -6 -7 -8 0 -11 7 -7 18 5 15 5 15 -6 1 -7 -9 -20 -15
-29 -14 -9 2 -16 -3 -16 -11 0 -7 4 -11 9 -8 4 3 5 -2 2 -10 -3 -9 -1 -16 6
-16 6 0 9 4 6 9 -3 5 2 15 11 22 14 12 15 11 9 -7 -5 -15 -2 -24 10 -28 15 -6
15 -4 3 11 -12 15 -12 16 3 10 13 -4 16 -2 12 11 -4 12 1 9 15 -7 12 -13 24
-21 27 -19 3 3 -2 13 -11 22 -9 9 -13 16 -9 16 3 0 2 6 -4 13 -7 8 -6 18 4 31
11 16 14 17 14 4 0 -10 7 -15 18 -13 9 2 21 4 25 4 5 1 6 5 2 11 -3 5 -13 7
-23 4 -14 -5 -14 -4 -3 4 20 15 43 3 36 -18 -7 -22 18 -22 38 0 10 10 9 12 -6
7 -10 -4 -15 -3 -12 2 6 11 52 8 63 -4 4 -4 1 -5 -5 -1 -7 4 -13 2 -13 -4 0
-6 -4 -8 -10 -5 -15 9 -12 -4 4 -20 7 -8 17 -11 22 -7 5 4 2 -1 -5 -10 -8 -11
-9 -18 -3 -18 6 0 13 4 17 10 3 5 13 6 21 3 13 -5 13 -7 2 -14 -10 -6 -9 -12
7 -24 20 -16 19 -16 -2 -5 -15 7 -23 7 -23 1 0 -6 -7 -8 -15 -5 -8 4 -13 10
-10 14 2 4 -4 15 -15 25 -11 10 -17 22 -14 26 3 5 1 9 -5 9 -5 0 -12 -4 -15
-9 -9 -14 -41 -5 -38 10 1 8 -5 5 -14 -6 -11 -13 -15 -14 -11 -5 3 11 -2 16
-14 17 -18 2 -18 1 1 -20 19 -20 24 -32 21 -50 -1 -5 3 -6 9 -2 6 3 8 10 5 15
-3 4 3 14 12 21 15 12 16 12 9 -6 -4 -11 -4 -16 0 -12 4 4 17 -7 30 -24 13
-18 25 -26 29 -20 3 6 11 11 17 11 7 0 6 -5 -2 -15 -10 -12 -9 -16 4 -21 9 -3
13 -10 10 -15 -3 -5 -1 -9 4 -9 16 0 23 31 11 46 -8 10 -8 14 0 14 6 0 11 -4
11 -9 0 -5 8 -18 18 -27 16 -17 16 -18 -3 -10 -11 4 -16 4 -12 0 4 -4 2 -13
-4 -20 -6 -8 -7 -14 0 -18 6 -4 9 -12 7 -19 -1 -7 -1 -9 1 -4 7 12 20 8 27 -9
3 -8 2 -12 -3 -9 -5 3 -13 1 -16 -5 -4 -6 -3 -10 2 -9 24 4 34 -4 13 -11 -24
-8 -24 -8 -2 -9 12 -1 22 -6 22 -12 0 -8 5 -8 15 1 13 11 17 8 26 -19 6 -17
15 -31 21 -31 5 0 6 5 3 10 -7 11 23 9 40 -2 6 -4 17 -2 25 4 12 8 12 9 -2 4
-25 -8 -22 1 3 15 13 7 19 7 15 1 -4 -6 2 -11 11 -11 10 0 27 -1 38 -4 11 -2
26 3 33 12 10 14 11 11 7 -14 l-4 -30 19 25 c17 22 20 23 25 7 4 -9 11 -17 17
-17 5 0 6 5 3 10 -3 6 -1 10 5 10 7 0 10 -6 7 -12 -2 -7 -11 -12 -19 -12 -8 1
-15 -4 -15 -11 0 -7 6 -11 14 -8 7 3 13 -1 13 -8 0 -7 -3 -9 -6 -6 -4 3 -15 2
-26 -4 -18 -10 -18 -9 -8 11 10 18 9 21 -1 15 -8 -6 -10 -4 -5 6 4 8 1 6 -7
-4 -15 -18 -16 -18 -26 0 -6 10 -11 14 -11 9 0 -5 -8 -2 -17 5 -16 12 -17 12
-6 -2 7 -9 10 -19 6 -23 -4 -4 1 -4 12 -1 16 6 17 5 5 -4 -20 -15 -33 -14 -27
2 3 7 -1 21 -9 32 -8 10 -14 14 -14 9 0 -11 -5 -13 -55 -17 -24 -2 -29 -7 -27
-22 2 -11 3 -28 3 -37 0 -10 10 -23 22 -29 21 -10 21 -10 3 5 -11 9 -17 19
-13 22 4 4 13 1 22 -6 9 -7 18 -11 20 -8 3 3 -6 11 -20 18 -14 7 -25 18 -25
23 0 5 10 3 23 -5 12 -8 28 -18 35 -22 10 -6 10 -11 1 -22 -7 -8 -7 -14 -1
-14 14 0 23 28 12 35 -6 4 -10 10 -10 16 0 5 9 4 19 -3 11 -7 18 -15 16 -19
-3 -3 7 -11 21 -18 19 -8 25 -17 21 -31 -3 -11 -1 -18 4 -14 5 3 9 11 9 19 0
8 9 21 21 29 12 8 18 19 15 24 -3 6 2 9 11 7 10 -2 22 -4 26 -4 5 -1 5 -6 1
-13 -4 -7 -3 -8 5 -4 6 4 9 12 5 17 -3 5 0 16 6 24 8 9 8 15 2 15 -6 0 -13 -6
-15 -12 -4 -10 -6 -10 -6 -1 -1 6 3 14 9 18 5 3 7 13 4 23 -4 13 -3 13 7 -2
13 -22 23 -100 11 -92 -4 3 -14 0 -22 -5 -11 -7 -9 -8 10 -6 16 3 27 12 31 28
l6 24 12 -28 c6 -16 15 -25 21 -22 5 3 10 8 10 11 0 3 -4 3 -9 0 -5 -3 -11 4
-14 15 -4 14 -2 19 8 16 7 -3 18 0 25 6 10 9 11 7 5 -13 l-8 -25 21 25 c12 14
21 20 22 15 0 -6 -5 -16 -12 -23 -9 -9 -9 -15 1 -25 10 -10 11 -8 5 7 -5 14
-4 17 5 12 6 -4 10 -4 9 1 -1 4 3 18 10 29 6 12 8 25 4 29 -4 5 1 5 11 2 9 -4
17 -2 17 3 0 6 -6 10 -14 10 -18 0 -25 19 -16 45 4 11 6 30 5 42 -1 19 1 21
13 10 12 -10 12 -5 -2 21 -12 23 -13 32 -4 32 7 0 3 7 -8 15 -25 17 -27 71 -4
85 11 7 11 10 2 10 -7 0 -10 5 -6 12 5 7 3 8 -6 3 -10 -6 -12 -4 -7 9 4 10 7
20 7 22 0 3 5 2 12 -2 7 -4 8 -3 4 5 -6 9 -11 9 -21 1 -10 -8 -15 -8 -21 1 -4
8 -3 9 4 5 7 -4 13 -1 14 6 0 7 2 20 2 28 1 8 8 14 16 12 10 -3 9 3 -4 17 -18
19 -15 26 8 22 5 -1 4 5 -3 13 -7 8 -9 21 -5 27 5 8 3 9 -6 4 -10 -6 -11 -4
-5 11 4 10 9 34 10 52 2 24 -2 32 -13 30 -8 -2 -17 3 -19 10 -3 8 1 10 12 5
12 -4 10 1 -6 19 -13 13 -29 23 -34 21 -6 -2 -11 10 -11 27 -1 19 2 28 10 23
7 -3 6 -1 -1 7 -9 10 -9 17 -2 26 11 13 3 38 -9 30 -4 -2 -16 2 -27 10 -10 8
-13 14 -7 14 7 0 12 5 12 11 0 5 -4 8 -9 5 -5 -3 -12 1 -15 9 -8 23 -5 30 15
27 22 -4 31 10 17 28 -8 12 -9 12 -4 -2 3 -11 0 -18 -8 -18 -18 0 -14 29 5 40
10 7 8 9 -8 8 -14 -2 -20 -8 -18 -20 2 -10 -1 -18 -6 -18 -5 0 -9 6 -7 13 1 6
-4 23 -11 36 -7 13 -9 21 -4 18 4 -3 17 2 28 10 14 11 16 17 7 20 -6 3 -9 10
-6 15 4 7 2 8 -4 4 -6 -4 -9 -13 -5 -21 3 -8 1 -15 -4 -15 -13 0 -13 32 1 49
8 11 8 13 -1 7 -7 -4 -13 -2 -13 3 0 6 5 11 11 11 6 0 3 7 -5 16 -20 20 -22
41 -2 25 11 -9 16 -9 22 0 4 7 3 9 -4 5 -6 -3 -15 1 -20 10 -8 15 -10 15 -15
-1 -4 -9 -2 -25 3 -35 10 -19 -4 -39 -17 -26 -4 3 -1 6 6 6 9 0 9 5 1 20 -6
11 -8 25 -5 30 10 16 14 80 5 75 -5 -3 -11 -1 -15 5 -4 6 -11 8 -16 4 -5 -3
-8 0 -7 8 2 7 -3 12 -10 10 -8 -1 -11 2 -7 8 3 5 1 10 -5 10 -6 0 -8 5 -5 10
3 6 1 11 -4 11 -34 4 -61 20 -54 31 4 7 -4 9 -20 6 -15 -3 -25 -2 -22 1 2 4 0
13 -6 21 -6 11 -9 12 -9 2 0 -7 -5 -10 -10 -7 -6 4 -7 11 -4 17 4 7 2 8 -4 4
-7 -4 -12 -15 -12 -24 0 -14 -2 -14 -9 -3 -5 8 -14 10 -21 6 -8 -5 -11 -4 -6
3 3 6 2 13 -4 17 -6 4 -8 11 -5 16 7 10 2 12 -8 3z m259 -187 c1 -9 -1 -19 -6
-22 -5 -3 -7 3 -6 12 2 10 -2 22 -8 26 -7 6 -6 7 3 5 8 -2 15 -12 17 -21z
m-792 -142 c-4 -8 -11 -15 -16 -15 -6 0 -5 6 2 15 7 8 14 15 16 15 2 0 1 -7
-2 -15z m871 -205 c4 -6 11 -8 16 -5 11 7 12 -8 2 -19 -5 -4 -8 -13 -8 -18 0
-6 -6 -13 -12 -15 -15 -5 -17 13 -3 22 6 3 10 11 10 17 0 6 -7 5 -17 -3 -16
-13 -17 -12 -5 3 10 13 10 17 0 21 -9 4 -9 6 -1 6 6 1 15 -4 18 -9z m-1308
-46 c-3 -4 -2 -16 4 -28 10 -20 9 -20 -5 -2 -14 17 -13 36 1 36 4 0 3 -3 0 -6z
m1320 -39 c0 -8 -4 -15 -9 -15 -10 0 -11 14 -1 23 9 10 10 9 10 -8z m35 -58
c-1 -9 6 -21 16 -29 10 -7 18 -23 17 -36 -2 -27 -31 -59 -42 -48 -5 4 3 17 17
29 15 12 18 18 8 14 -54 -21 -54 -21 -36 -6 18 16 19 64 1 64 -6 0 -15 3 -19
8 -4 4 1 7 12 7 15 0 16 2 4 9 -8 6 -18 7 -24 4 -5 -3 -6 -1 -2 5 10 16 52 -2
48 -21z m-15 -37 c-2 -11 -6 -22 -10 -25 -4 -3 -5 -2 -2 2 3 3 -1 13 -8 21 -9
13 -9 14 1 8 6 -4 12 -2 12 3 0 6 2 11 5 11 3 0 4 -9 2 -20z m46 -94 c6 -15
-1 -26 -16 -26 -5 0 -7 7 -4 14 4 11 1 13 -11 10 -14 -5 -15 -4 -2 5 20 14 27
14 33 -3z m-603 -62 c0 -8 -4 -14 -8 -14 -4 0 -8 9 -8 19 0 11 4 17 8 15 4 -3
8 -12 8 -20z m591 2 c5 3 6 10 3 16 -4 7 -2 8 5 4 6 -4 8 -13 4 -19 -4 -7 -8
-15 -8 -19 0 -3 -4 -10 -9 -15 -5 -4 -6 -3 -2 4 3 6 2 14 -4 18 -5 3 -9 14 -9
23 1 15 2 15 6 -1 2 -9 9 -15 14 -11z m-680 -3 c13 -16 12 -17 -3 -4 -10 7
-18 15 -18 17 0 8 8 3 21 -13z m34 -1 c-3 -3 -11 0 -18 7 -9 10 -8 11 6 5 10
-3 15 -9 12 -12z m130 -62 c3 -6 -1 -7 -9 -4 -18 7 -21 14 -7 14 6 0 13 -4 16
-10z m-39 -63 c1 -9 0 -17 -3 -17 -9 0 -43 42 -43 53 0 16 43 -18 46 -36z
m-380 -13 c11 4 12 2 4 -14 -5 -10 -15 -22 -20 -25 -6 -4 -8 -10 -5 -15 3 -4
-2 -11 -10 -14 -12 -4 -13 -2 -7 12 5 9 7 23 4 31 -3 10 0 12 14 7 16 -6 15
-4 -3 14 -13 11 -23 26 -23 33 0 6 7 1 16 -11 9 -13 22 -21 30 -18z m-50 -21
c-9 -57 -16 -77 -36 -98 -11 -12 -17 -25 -13 -30 5 -4 2 -5 -4 -1 -7 4 -13 14
-13 22 0 8 -5 12 -10 9 -6 -4 -8 -10 -5 -15 6 -9 -13 -24 -30 -25 -5 0 -9 -12
-7 -25 1 -14 -1 -20 -5 -14 -12 17 -45 13 -38 -4 5 -13 3 -13 -11 -1 -14 11
-18 11 -30 -6 -8 -10 -17 -15 -21 -10 -5 4 -2 10 5 12 6 3 10 9 6 14 -3 5 -2
9 3 8 26 -4 44 2 37 14 -5 7 0 6 11 -3 17 -14 18 -13 12 2 -4 13 -2 15 11 11
15 -6 16 -5 2 12 -8 10 -10 17 -5 14 13 -7 55 37 46 48 -3 4 2 1 12 -6 19 -15
24 -2 5 17 -7 7 -8 12 -2 12 5 0 15 -9 22 -20 7 -12 17 -18 23 -14 6 3 3 11
-8 20 -10 7 -13 14 -8 14 6 0 3 5 -5 11 -11 8 -9 9 10 3 22 -6 23 -5 11 10 -8
9 -9 16 -3 16 6 0 12 -6 15 -12 2 -7 8 -10 12 -6 4 4 2 15 -6 25 -9 11 -10 14
-1 9 6 -4 12 -2 12 3 0 6 2 11 5 11 2 0 3 -12 1 -27z m474 -13 c0 -5 -7 -7
-15 -4 -8 4 -12 10 -9 15 6 11 24 2 24 -11z m30 -40 c-12 -8 -12 -10 -1 -10 8
0 12 -3 8 -6 -9 -9 -28 6 -22 17 4 5 12 9 18 9 7 0 6 -4 -3 -10z m489 -113 c0
-9 -2 -8 -6 1 -2 6 -10 9 -15 6 -7 -4 -8 -2 -4 5 9 13 26 5 25 -12z m-1436
-17 c4 -17 2 -18 -14 -9 -22 11 -25 29 -5 29 7 0 16 -9 19 -20z m1087 10 c0
-4 -7 -7 -15 -6 -23 3 -26 12 -5 13 11 1 20 -2 20 -7z m257 -19 c-4 12 3 15
40 13 50 -3 72 -17 69 -42 -2 -11 -12 -17 -29 -17 -14 -1 -29 -4 -33 -8 -4 -4
-13 -2 -21 4 -7 6 -13 7 -13 2 0 -5 -6 -10 -13 -10 -9 0 -13 10 -11 24 1 12
-2 25 -7 29 -5 3 -9 10 -9 17 0 6 7 2 16 -9 11 -13 14 -14 11 -3z m-192 -39
c1 -12 -2 -19 -7 -16 -5 4 -7 13 -4 23 4 10 0 8 -11 -6 -16 -19 -20 -20 -37
-8 -10 8 -23 12 -27 9 -5 -3 -9 -1 -9 5 0 5 14 8 30 6 17 -2 30 0 30 5 0 19
34 2 35 -18z m69 -13 c-2 -4 3 -12 11 -16 14 -8 13 -12 -5 -28 -11 -10 -20
-13 -20 -7 0 7 -6 12 -14 12 -16 0 -29 27 -16 35 5 3 12 0 16 -6 5 -8 3 -9 -6
-4 -9 5 -11 4 -6 -4 10 -15 27 -4 20 13 -3 7 2 13 10 13 8 0 13 -4 10 -8z"/>
<path d="M742 631 c-11 -7 -11 -9 0 -14 9 -3 15 1 15 9 0 8 -1 14 -1 14 -1 0
-7 -4 -14 -9z"/>
<path d="M682 583 c-7 -2 -17 -13 -22 -23 -8 -15 -6 -18 8 -16 9 2 17 7 17 12
0 5 4 15 8 22 9 13 9 13 -11 5z"/>
<path d="M715 580 c3 -5 8 -10 11 -10 2 0 4 5 4 10 0 6 -5 10 -11 10 -5 0 -7
-4 -4 -10z"/>
<path d="M1685 470 c-10 -11 -15 -21 -12 -21 4 -1 10 -2 15 -3 4 -1 12 -4 18
-8 6 -4 14 -4 18 0 4 4 11 7 14 8 4 0 15 4 24 8 20 9 13 30 -7 22 -8 -3 -16 0
-19 7 -3 8 -5 8 -5 -2 -1 -10 -4 -11 -14 -2 -11 8 -18 6 -32 -9z m58 -5 c9 2
15 -1 11 -6 -3 -5 -9 -7 -14 -4 -5 3 -12 1 -15 -5 -5 -8 -11 -8 -19 -1 -7 6
-17 7 -22 3 -4 -4 -2 1 5 11 9 11 18 14 25 8 6 -4 19 -7 29 -6z"/>
<path d="M1510 1638 c0 -4 4 -8 9 -8 6 0 12 4 15 8 3 5 -1 9 -9 9 -8 0 -15 -4
-15 -9z"/>
<path d="M1650 1321 c0 -5 9 -7 20 -4 11 3 20 7 20 9 0 2 -9 4 -20 4 -11 0
-20 -4 -20 -9z"/>
<path d="M655 1311 c-3 -5 -2 -12 3 -15 5 -3 9 1 9 9 0 17 -3 19 -12 6z"/>
<path d="M575 1260 c-3 -5 -1 -10 4 -10 6 0 11 5 11 10 0 6 -2 10 -4 10 -3 0
-8 -4 -11 -10z"/>
<path d="M1713 1247 c-8 -17 -8 -24 0 -24 7 0 13 11 13 24 2 29 0 29 -13 0z"/>
<path d="M636 1242 c-3 -5 1 -9 9 -9 8 0 12 4 9 9 -3 4 -7 8 -9 8 -2 0 -6 -4
-9 -8z"/>
<path d="M1667 1239 c7 -7 15 -10 18 -7 3 3 -2 9 -12 12 -14 6 -15 5 -6 -5z"/>
<path d="M515 1221 c-6 -11 13 -26 22 -17 4 3 1 6 -6 6 -7 0 -9 5 -6 10 3 6 4
10 1 10 -3 0 -7 -4 -11 -9z"/>
<path d="M583 1217 c-4 -6 -1 -7 7 -2 10 6 12 3 8 -13 -4 -12 -3 -20 2 -17 4
3 10 13 12 23 6 20 -18 27 -29 9z"/>
<path d="M1700 1198 c0 -4 4 -8 9 -8 6 0 12 4 15 8 3 5 -1 9 -9 9 -8 0 -15 -4
-15 -9z"/>
<path d="M1735 1180 c3 -5 8 -10 11 -10 2 0 4 5 4 10 0 6 -5 10 -11 10 -5 0
-7 -4 -4 -10z"/>
<path d="M590 1166 c0 -2 8 -10 18 -17 15 -13 16 -12 3 4 -13 16 -21 21 -21
13z"/>
<path d="M1744 1144 c-18 -14 -18 -15 4 -4 12 6 22 13 22 15 0 8 -5 6 -26 -11z"/>
<path d="M1737 1103 c-4 -3 -7 -11 -7 -17 0 -6 5 -5 12 2 6 6 9 14 7 17 -3 3
-9 2 -12 -2z"/>
<path d="M340 1086 c0 -2 8 -10 18 -17 15 -13 16 -12 3 4 -13 16 -21 21 -21
13z"/>
<path d="M1750 1071 c0 -10 19 -25 25 -20 1 2 -3 10 -11 17 -8 7 -14 8 -14 3z"/>
<path d="M341 1044 c0 -11 3 -14 6 -6 3 7 2 16 -1 19 -3 4 -6 -2 -5 -13z"/>
<path d="M361 1034 c0 -11 3 -14 6 -6 3 7 2 16 -1 19 -3 4 -6 -2 -5 -13z"/>
<path d="M326 997 c3 -10 9 -15 12 -12 3 3 0 11 -7 18 -10 9 -11 8 -5 -6z"/>
<path d="M371 1007 c2 -2 11 -8 20 -15 12 -9 16 -9 16 1 0 7 -9 14 -20 14 -11
1 -18 1 -16 0z"/>
<path d="M343 914 c-17 -14 -17 -15 2 -6 11 5 26 7 33 5 17 -6 15 4 -2 10 -8
3 -22 -1 -33 -9z"/>
<path d="M333 874 c0 -9 4 -11 12 -4 7 5 14 9 16 7 2 -1 3 0 1 2 -7 11 -29 7
-29 -5z"/>
<path d="M276 818 c3 -5 10 -6 15 -3 13 9 11 12 -6 12 -8 0 -12 -4 -9 -9z"/>
<path d="M1018 790 c-18 -17 -24 -27 -13 -21 34 17 60 39 53 46 -3 3 -21 -8
-40 -25z"/>
<path d="M253 735 c0 -8 4 -12 9 -9 5 3 6 10 3 15 -9 13 -12 11 -12 -6z"/>
<path d="M887 719 c-17 -16 -28 -28 -23 -29 5 0 3 -6 -3 -14 -12 -14 -5 -46 9
-46 5 0 12 5 16 12 4 7 3 8 -4 4 -7 -4 -12 -3 -12 2 0 17 13 22 28 9 13 -10
14 -9 7 2 -6 11 -4 13 8 8 9 -3 19 -2 22 4 4 5 12 7 18 3 7 -3 3 2 -7 10 -11
9 -23 16 -26 16 -4 0 -7 7 -7 15 0 8 4 15 9 15 4 0 8 -3 8 -8 0 -4 9 -13 21
-20 12 -8 18 -9 14 -3 -3 6 -2 11 4 11 5 0 9 8 8 18 -2 29 -51 23 -90 -9z m77
0 c-3 -5 -10 -7 -15 -3 -5 3 -7 10 -3 15 3 5 10 7 15 3 5 -3 7 -10 3 -15z
m-34 -39 c0 -4 -10 -6 -22 -5 -13 1 -29 -3 -37 -9 -12 -9 -13 -8 -6 4 6 8 10
18 11 23 1 4 2 9 3 12 2 7 51 -17 51 -25z"/>
<path d="M1235 729 c-4 -6 -5 -12 -2 -15 2 -3 7 2 10 11 7 17 1 20 -8 4z"/>
<path d="M1135 699 c-4 -6 -4 -13 -1 -16 3 -4 6 -1 6 7 0 10 4 10 18 -1 15
-13 16 -12 3 4 -16 20 -18 20 -26 6z"/>
<path d="M1784 678 c1 -15 5 -28 9 -28 4 0 10 0 13 0 4 0 1 7 -6 15 -9 11 -10
19 -1 28 8 10 7 14 -3 14 -8 0 -13 -11 -12 -29z"/>
<path d="M976 685 c-3 -8 -1 -15 4 -15 6 0 10 7 10 15 0 8 -2 15 -4 15 -2 0
-6 -7 -10 -15z"/>
<path d="M1093 665 c0 -8 4 -12 9 -9 5 3 6 10 3 15 -9 13 -12 11 -12 -6z"/>
<path d="M1159 653 c-12 -16 -12 -17 2 -6 9 7 20 9 24 5 5 -4 5 -1 1 6 -9 16
-11 15 -27 -5z"/>
<path d="M1199 648 c-6 -22 -5 -39 3 -45 6 -3 8 -1 4 5 -3 5 0 13 6 15 10 4
10 6 0 6 -7 1 -10 6 -7 11 3 6 4 10 1 10 -3 0 -6 -1 -7 -2z"/>
<path d="M856 601 c-4 -5 3 -7 14 -4 23 6 26 13 6 13 -8 0 -17 -4 -20 -9z"/>
<path d="M780 559 c0 -5 5 -7 10 -4 6 3 10 8 10 11 0 2 -4 4 -10 4 -5 0 -10
-5 -10 -11z"/>
<path d="M1230 546 c0 -2 7 -7 16 -10 8 -3 12 -2 9 4 -6 10 -25 14 -25 6z"/>
<path d="M1808 543 c7 -3 16 -2 19 1 4 3 -2 6 -13 5 -11 0 -14 -3 -6 -6z"/>
<path d="M1803 523 c4 -3 2 -12 -4 -19 -7 -8 -6 -14 2 -20 7 -4 9 -3 5 4 -3 6
-2 13 4 17 14 8 13 25 -2 25 -6 0 -8 -3 -5 -7z"/>
<path d="M773 505 c0 -8 4 -12 9 -9 5 3 6 10 3 15 -9 13 -12 11 -12 -6z"/>
<path d="M1284 499 c-3 -6 2 -18 12 -27 17 -16 17 -16 5 0 -7 9 -10 22 -6 28
3 5 4 10 1 10 -3 0 -8 -5 -12 -11z"/>
<path d="M682 480 c0 -14 2 -19 5 -12 2 6 2 18 0 25 -3 6 -5 1 -5 -13z"/>
<path d="M1317 485 c3 -8 9 -12 14 -9 12 7 11 11 -5 17 -10 4 -13 1 -9 -8z"/>
<path d="M430 481 c0 -6 4 -12 8 -15 5 -3 9 1 9 9 0 8 -4 15 -9 15 -4 0 -8 -4
-8 -9z"/>
<path d="M254 437 c-1 -30 -1 -30 9 -9 6 14 7 26 1 32 -5 5 -9 -4 -10 -23z"/>
<path d="M1255 460 c3 -5 8 -10 11 -10 2 0 4 5 4 10 0 6 -5 10 -11 10 -5 0 -7
-4 -4 -10z"/>
<path d="M291 444 c0 -11 3 -14 6 -6 3 7 2 16 -1 19 -3 4 -6 -2 -5 -13z"/>
<path d="M579 450 c-7 -5 -10 -13 -5 -17 5 -4 11 -3 13 4 2 7 11 9 19 6 8 -3
14 -3 14 0 0 10 -27 15 -41 7z"/>
<path d="M651 444 c0 -11 3 -14 6 -6 3 7 2 16 -1 19 -3 4 -6 -2 -5 -13z"/>
<path d="M1345 447 c-14 -11 -15 -16 -5 -22 9 -5 11 -4 6 3 -11 19 5 14 21 -5
13 -16 13 -16 4 3 -6 12 -7 24 -4 28 11 11 -3 6 -22 -7z"/>
<path d="M215 439 c-3 -4 2 -6 10 -5 21 3 28 13 10 13 -9 0 -18 -4 -20 -8z"/>
<path d="M433 435 c0 -8 4 -12 9 -9 4 3 8 0 8 -7 0 -7 2 -10 5 -7 7 7 -5 38
-14 38 -4 0 -8 -7 -8 -15z"/>
<path d="M1810 431 c0 -6 4 -13 10 -16 6 -3 7 1 4 9 -7 18 -14 21 -14 7z"/>
<path d="M510 420 c0 -5 5 -10 10 -10 6 0 10 5 10 10 0 6 -4 10 -10 10 -5 0
-10 -4 -10 -10z"/>
<path d="M551 411 c-9 -6 -10 -11 -2 -15 6 -4 8 -13 5 -19 -4 -7 -3 -9 1 -4 7
5 16 48 11 47 -1 0 -7 -4 -15 -9z"/>
<path d="M596 407 c3 -10 9 -15 12 -12 3 3 0 11 -7 18 -10 9 -11 8 -5 -6z"/>
<path d="M357 397 c-3 -7 3 -13 13 -13 10 0 16 6 13 13 -3 7 -9 13 -13 13 -4
0 -10 -6 -13 -13z"/>
<path d="M415 399 c-4 -6 -4 -13 -1 -16 3 -4 6 -1 6 7 0 10 3 10 15 0 13 -11
14 -10 9 4 -7 18 -20 21 -29 5z"/>
<path d="M1588 379 c-10 -10 -18 -25 -18 -31 0 -7 5 -5 11 5 6 9 14 15 18 13
4 -3 8 4 8 15 2 22 3 23 -19 -2z"/>
<path d="M255 380 c-3 -5 -1 -10 4 -10 6 0 11 5 11 10 0 6 -2 10 -4 10 -3 0
-8 -4 -11 -10z"/>
<path d="M1481 373 c-1 -17 16 -25 25 -12 4 7 3 9 -4 5 -5 -3 -13 0 -15 6 -4
9 -6 10 -6 1z"/>
<path d="M1675 360 c3 -5 8 -10 11 -10 2 0 4 5 4 10 0 6 -5 10 -11 10 -5 0 -7
-4 -4 -10z"/>
<path d="M1724 362 c4 -3 14 -7 22 -8 9 -1 13 0 10 4 -4 3 -14 7 -22 8 -9 1
-13 0 -10 -4z"/>
<path d="M1630 356 c0 -2 9 -6 20 -9 11 -3 18 -1 14 4 -5 9 -34 13 -34 5z"/>
<path d="M1590 346 c0 -2 9 -6 20 -9 11 -3 18 -1 14 4 -5 9 -34 13 -34 5z"/>
<path d="M1775 340 c3 -5 8 -10 11 -10 2 0 4 5 4 10 0 6 -5 10 -11 10 -5 0 -7
-4 -4 -10z"/>
</g>
</svg>
